<svg xmlns="http://www.w3.org/2000/svg" width="329.057" height="80" viewBox="0 0 329.057 80">
  <g id="Logo" transform="translate(-82.186 -238.709)">
    <path id="Path_1" data-name="Path 1" d="M93.376,296.666l6.682-12.08h14.152v34.229A36.95,36.95,0,0,1,93.376,296.666Zm50.727.75-7.1-12.829h12.365v30.241a36.652,36.652,0,0,1-31.106,5.383V284.586h14.159l7.1,12.829Zm9.323-12.829h11.519c0,.072.007.144.007.215a36.67,36.67,0,0,1-11.526,26.7Zm-37.184-29.245,13.947,25.191H102.3ZM91.4,284.8a36.827,36.827,0,0,1,22.778-34L91.933,291A36.705,36.705,0,0,1,91.4,284.8Zm26.228-35.229a36.765,36.765,0,0,1,47.064,30.96H134.761ZM88.178,284.8a40,40,0,1,0,40-40A40.042,40.042,0,0,0,88.178,284.8Z" transform="translate(-5.992 -6.091)" fill="#fff" fill-rule="evenodd"/>
    <path id="Path_2" data-name="Path 2" d="M239.109,270.788a1.454,1.454,0,0,1-.7-.437,4.169,4.169,0,0,1-.544-1.121l-5.33-14.684-1.239.181L225.16,269.37a4.7,4.7,0,0,1-.481.934,1.247,1.247,0,0,1-.672.449l-1.21.372.06.513c.885-.023,1.692-.033,2.4-.033s1.654.01,2.79.033l-.026-.538-1.111-.325a.809.809,0,0,1-.345-.172.387.387,0,0,1-.115-.306,1.9,1.9,0,0,1,.144-.625c.1-.267.226-.621.4-1.066l1.261-3.208h5.788l1.124,3.217c.153.433.274.777.357,1.041a2.1,2.1,0,0,1,.126.624.451.451,0,0,1-.1.322.873.873,0,0,1-.344.185l-1.14.337.048.513c1.24-.023,2.319-.033,3.23-.033.892,0,1.87.01,2.914.033l-.018-.513ZM228.7,264.305l2.609-6.612,2.339,6.612Zm25.039-9.508.073.1-.758,4.214-.477.083-.768-3.281h-4.239V267.9c0,.942.009,1.72.022,2.328a.383.383,0,0,0,.315.374l1.778.528.026.513q-1.864-.034-3.291-.033-1.476,0-3.268.033l-.044-.513,1.775-.528a.393.393,0,0,0,.315-.374c.016-.608.019-1.385.019-2.328V255.913h-4.237l-1.067,3.2-.481.083-.312-4.3.086-.1q2.953.047,5.654.048h3.2C249.855,254.845,251.751,254.829,253.738,254.8Zm31.464,3.341v9.778c0,.484,0,.918,0,1.313s.012.748.02,1.067c.009.2.15.335.417.407l1.36.42.019.513c-1.032-.023-2.02-.033-2.972-.033-.968,0-1.959.01-2.978.033l-.051-.513,1.481-.445a.4.4,0,0,0,.322-.376c.005-.315.013-.678.019-1.07s0-.832,0-1.316v-9.73c0-.411,0-.778,0-1.108s-.013-.625-.019-.889a.411.411,0,0,0-.287-.4l-1.488-.468-.029-.52c1.039.031,2.029.048,2.982.048s1.949-.016,2.975-.048l.044.52-1.484.442a.382.382,0,0,0-.313.373c-.007.284-.016.586-.02.917S285.2,257.741,285.2,258.139Zm20.665-3.341.048.52-1.509.468a.4.4,0,0,0-.286.4c-.023.529-.026,1.194-.026,2v13.418l-1.006.093-10.795-13.473v9.692c0,.946.012,1.733.023,2.354a.381.381,0,0,0,.3.408l1.431.42.022.538c-1-.023-1.822-.033-2.459-.033s-1.452.01-2.485.033l-.051-.513,1.477-.445a.406.406,0,0,0,.328-.376c.01-.64.022-1.44.022-2.386v-9.73c0-.8-.012-1.469-.022-2a.416.416,0,0,0-.293-.4l-1.487-.468-.026-.52c1.032.031,1.847.048,2.453.048q.535,0,1.089-.048L302.7,267.392v-9.253c0-.78-.009-1.446-.022-2.006a.39.39,0,0,0-.313-.373l-1.42-.4-.019-.557c1.023.031,1.853.048,2.485.048S304.871,254.829,305.867,254.8Zm17.841,0,.044.52-1.211.385a1.167,1.167,0,0,0-.64.4,6.041,6.041,0,0,0-.573,1.118l-5.988,14.384-1.2.093-5.355-14.477a4.239,4.239,0,0,0-.535-1.1,1.371,1.371,0,0,0-.736-.466l-1.092-.334-.026-.52c.8.031,1.72.048,2.784.048q1.619,0,3.35-.048l.048.52-1.134.325a.646.646,0,0,0-.341.176.445.445,0,0,0-.108.328,2.135,2.135,0,0,0,.127.644c.083.264.2.608.354,1.035l3.873,10.8,4.214-10.791c.168-.441.3-.8.395-1.064a1.943,1.943,0,0,0,.147-.64.4.4,0,0,0-.115-.315.774.774,0,0,0-.341-.166l-1.118-.3-.022-.557c.866.031,1.752.048,2.643.048S322.89,254.829,323.708,254.8Zm12,12.68.541-.1-.271,4.176-.08.083q-3.1-.034-5.736-.033h-2.857c-.965,0-1.959.01-2.974.033l-.055-.513,1.481-.445a.4.4,0,0,0,.325-.376c.007-.315.013-.678.013-1.07s.007-.832.007-1.316v-9.73c0-.411,0-.778-.007-1.108s-.005-.625-.013-.889a.413.413,0,0,0-.289-.4l-1.491-.468-.026-.52q1.553.047,2.978.048h2.925q2.685,0,5.673-.048l.073.1-.7,3.707-.48.08L334,255.913h-5.542v6.607h1.089c.832,0,1.761-.01,2.787-.026a.412.412,0,0,0,.4-.309l.42-1.622.65-.025c-.026,1.118-.035,1.946-.035,2.485,0,.523.009,1.335.035,2.449l-.65.048-.427-1.647a.411.411,0,0,0-.373-.325q-1.557-.02-2.826-.02h-1.076V267.9c0,.885.005,1.768.022,2.627h5.762Zm13.368-2.223a3.943,3.943,0,0,1,.373,1.761,4.127,4.127,0,0,1-1.867,3.653,8.447,8.447,0,0,1-4.826,1.258,15.8,15.8,0,0,1-4.234-.65l-.066-.092.586-4.083.541-.087.841,3.411a6.963,6.963,0,0,0,2.605.5,4.416,4.416,0,0,0,2.79-.786,2.717,2.717,0,0,0,1-2.258,2.679,2.679,0,0,0-.328-1.351,3.142,3.142,0,0,0-.87-1,7.118,7.118,0,0,0-1.242-.764c-.458-.225-.945-.452-1.442-.679-.555-.242-1.1-.5-1.631-.777a7.65,7.65,0,0,1-1.433-.981,4.19,4.19,0,0,1-1.026-1.363,4.447,4.447,0,0,1-.385-1.895,3.79,3.79,0,0,1,1.822-3.361,8.044,8.044,0,0,1,4.5-1.188,18.8,18.8,0,0,1,3.975.446l.083.082-.708,3.747-.481.08-.777-2.985a7.366,7.366,0,0,0-2.319-.421,3.869,3.869,0,0,0-2.526.768,2.611,2.611,0,0,0-.945,2.134,2.773,2.773,0,0,0,.331,1.374,3.534,3.534,0,0,0,.889,1.028,7.191,7.191,0,0,0,1.268.793c.472.229.962.465,1.462.685.552.239,1.09.494,1.609.761a7.151,7.151,0,0,1,1.41.943A4.176,4.176,0,0,1,349.079,265.255ZM364.552,254.8l.073.1-.757,4.214-.477.083-.768-3.281h-4.237V267.9c0,.942,0,1.72.023,2.328a.383.383,0,0,0,.312.374l1.775.528.029.513q-1.864-.034-3.29-.033-1.477,0-3.265.033l-.048-.513,1.778-.528a.384.384,0,0,0,.312-.374c.009-.608.025-1.385.025-2.328V255.913H351.8l-1.067,3.2-.481.083-.315-4.3.086-.1q2.952.047,5.654.048h3.2Q361.566,254.845,364.552,254.8Zm19.462,3.389v9.73c0,.946.006,1.746.022,2.386a.406.406,0,0,0,.339.376l1.436.445.026.513c-1.054-.023-2.068-.033-3.033-.033q-1.418,0-2.8.033l-.051-.513,1.382-.42a.412.412,0,0,0,.3-.424c.012-.63.025-1.417.025-2.364V257.524l-5.953,14.081-.876.093-5.991-14.174v10.393q0,1.419.025,2.364a.408.408,0,0,0,.309.424l1.345.42.028.513q-1.432-.034-2.393-.033-.935,0-2.481.033l-.051-.513,1.475-.445a.4.4,0,0,0,.325-.376c.016-.64.025-1.44.025-2.386v-9.73q0-1.205-.025-2a.407.407,0,0,0-.29-.4l-1.488-.468-.023-.52c1.033.031,1.851.048,2.45.048.687,0,1.4-.016,2.153-.048l5.568,13.171,5.562-13.171q1.132.047,2.045.048.888,0,2.393-.048l.044.52-1.513.468a.408.408,0,0,0-.287.4Q384.012,256.983,384.014,258.187Zm15.588,9.291.541-.1-.264,4.176-.083.083q-3.11-.034-5.737-.033H391.2c-.968,0-1.965.01-2.978.033l-.048-.513,1.475-.445a.4.4,0,0,0,.324-.376c0-.315.013-.678.02-1.07s.006-.832.006-1.316v-9.73c0-.411,0-.778-.006-1.108s-.016-.625-.02-.889a.405.405,0,0,0-.286-.4l-1.487-.468-.027-.52c1.033.031,2.027.048,2.976.048h2.918q2.689,0,5.679-.048l.069.1-.694,3.707-.484.08-.742-2.772h-5.546v6.607h1.092c.835,0,1.761-.01,2.786-.026a.41.41,0,0,0,.406-.309l.424-1.622.65-.025q-.039,1.677-.039,2.485c0,.523.013,1.335.039,2.449l-.65.048-.431-1.647a.41.41,0,0,0-.372-.325q-1.562-.02-2.822-.02h-1.083V267.9c0,.885.009,1.768.029,2.627h5.759ZM418.94,254.8l.051.52-1.516.468a.409.409,0,0,0-.286.4q-.02.793-.019,2v13.418l-1.013.093-10.793-13.473v9.692c0,.946.01,1.733.029,2.354a.378.378,0,0,0,.3.408l1.431.42.022.538c-1-.023-1.821-.033-2.463-.033q-.935,0-2.487.033l-.044-.513,1.474-.445a.4.4,0,0,0,.321-.376c.023-.64.026-1.44.026-2.386v-9.73c0-.8,0-1.469-.026-2a.4.4,0,0,0-.286-.4l-1.488-.468-.022-.52c1.029.031,1.846.048,2.446.048.364,0,.727-.016,1.1-.048l10.081,12.594v-9.253c0-.78-.012-1.446-.022-2.006a.4.4,0,0,0-.313-.373l-1.417-.4L414,254.8c1.02.031,1.851.048,2.481.048S417.94,254.829,418.94,254.8Zm15.63,0,.073.1-.755,4.214-.48.083-.771-3.281H428.4V267.9c0,.942.007,1.72.026,2.328a.38.38,0,0,0,.312.374l1.777.528.019.513c-1.24-.023-2.338-.033-3.284-.033-.987,0-2.073.01-3.268.033l-.048-.513,1.777-.528a.383.383,0,0,0,.313-.374c.016-.608.026-1.385.026-2.328V255.913h-4.24l-1.07,3.2-.481.083-.309-4.3.083-.1q2.957.047,5.656.048h3.2Q431.579,254.845,434.57,254.8Zm12.27,12.155v.133a4.118,4.118,0,0,1-1.874,3.583,8.427,8.427,0,0,1-4.825,1.258,15.794,15.794,0,0,1-4.23-.65l-.07-.092.587-4.083.544-.087.838,3.411a6.981,6.981,0,0,0,2.608.5,4.408,4.408,0,0,0,2.788-.786,3.017,3.017,0,0,0,.678-3.609,3.228,3.228,0,0,0-.866-1,7.4,7.4,0,0,0-1.243-.764q-.7-.338-1.443-.679c-.557-.242-1.1-.5-1.627-.777a7.334,7.334,0,0,1-1.439-.981,4.2,4.2,0,0,1-1.029-1.363,4.448,4.448,0,0,1-.379-1.895,3.781,3.781,0,0,1,1.818-3.361,8.062,8.062,0,0,1,4.507-1.188,18.858,18.858,0,0,1,3.975.446l.082.082-.713,3.747-.477.08-.781-2.985a7.354,7.354,0,0,0-2.318-.421,3.868,3.868,0,0,0-2.523.768,2.6,2.6,0,0,0-.94,2.134,2.74,2.74,0,0,0,.328,1.374,3.4,3.4,0,0,0,.886,1.028,7.078,7.078,0,0,0,1.268.793c.471.229.958.465,1.467.685.552.239,1.08.494,1.606.761a7.438,7.438,0,0,1,1.41.943,4.087,4.087,0,0,1,1.006,1.3A3.9,3.9,0,0,1,446.84,266.953ZM268.817,254.8l.069.1-.754,4.214-.481.083-.764-3.281h-4.24V267.9c0,.942.006,1.72.026,2.328a.378.378,0,0,0,.311.374l1.774.528.023.513c-1.239-.023-2.338-.033-3.287-.033q-1.481,0-3.265.033l-.048-.513,1.778-.528a.373.373,0,0,0,.308-.374c.016-.608.022-1.385.022-2.328V255.913h-4.232l-1.067,3.2-.484.083-.313-4.3.087-.1c1.968.031,3.851.048,5.657.048h3.2Q265.828,254.845,268.817,254.8Z" transform="translate(-35.597 -8.23)" fill="#fff" fill-rule="evenodd"/>
    <path id="Path_3" data-name="Path 3" d="M220.892,288.171H443.664l-.548,2.753H220.345Zm-7.674,38.581H435.99l.548-2.753H213.766Zm1.346-6.167H437.1l5.1-25.651H219.666Z" transform="translate(-33.49 -15.629)" fill="#f1cc7e" fill-rule="evenodd"/>
    <path id="Path_4" data-name="Path 4" d="M239.068,306.057h-8.713a.552.552,0,0,0-.6.483l-2.19,10.371c-.064.274.048.419.322.419h2.094a.476.476,0,0,0,.5-.419l.612-2.882h6.281c2.528,0,3.736-1.16,4.219-3.334a12.61,12.61,0,0,0,.419-2.4C242.015,306.83,241.129,306.057,239.068,306.057Zm-.339,4.332a1.244,1.244,0,0,1-1.4,1.127h-5.7l.563-2.641a.235.235,0,0,1,.257-.193h5.476c.708,0,1.014.209,1.014.676A4.474,4.474,0,0,1,238.73,310.389Zm14.575-4.332h-8.713a.552.552,0,0,0-.6.483l-2.19,10.371c-.064.274.048.419.322.419h2.094a.476.476,0,0,0,.5-.419l.644-3.028h4.509l1.691,3.221c.08.145.161.225.467.225h2.48a.337.337,0,0,0,.338-.467l-1.884-3.285a3.687,3.687,0,0,0,2.947-3.205,9.525,9.525,0,0,0,.339-2.093C256.252,306.814,255.366,306.057,253.3,306.057Zm-.339,4.412a1.24,1.24,0,0,1-1.417,1.112h-5.7l.58-2.706a.235.235,0,0,1,.257-.209h5.476c.725,0,1,.225,1,.708A6.38,6.38,0,0,1,252.966,310.469Zm14.929-4.412h-5.024c-3.3,0-4.815,1.159-5.46,4.251a24.1,24.1,0,0,0-.757,4.316c0,1.932,1.159,2.705,3.833,2.705h5.025c3.3,0,4.815-1.16,5.46-4.251a24.106,24.106,0,0,0,.757-4.316C271.728,306.83,270.569,306.057,267.9,306.057Zm.193,6.8c-.307,1.449-.741,1.836-2.126,1.836h-4.8c-1.079,0-1.481-.209-1.481-.95a21,21,0,0,1,.612-3.2c.307-1.449.741-1.82,2.126-1.82h4.815c1.063,0,1.466.193,1.466.934A20.98,20.98,0,0,1,268.089,312.853Zm23.786-6.377-.4,1.884a.476.476,0,0,1-.5.419h-7.167c-1.385,0-1.836.37-2.142,1.819a19.885,19.885,0,0,0-.58,3.077c0,.74.4.934,1.466.934h7.166c.29,0,.4.145.339.419l-.4,1.884a.466.466,0,0,1-.5.419h-7.279c-2.674,0-3.833-.773-3.833-2.705a24.069,24.069,0,0,1,.757-4.316c.644-3.092,2.158-4.251,5.459-4.251h7.279C291.811,306.057,291.939,306.2,291.875,306.476Zm14.945-.049-7.215,7.522-.628,2.963a.471.471,0,0,1-.515.419h-2.078c-.289,0-.386-.145-.322-.419l.612-2.963-3.946-7.522a.25.25,0,0,1,.242-.37h2.577a.373.373,0,0,1,.4.225l2.722,5.459,5.041-5.459a.608.608,0,0,1,.5-.225h2.512C306.933,306.057,306.982,306.25,306.82,306.427Zm12.53.049-.4,1.884a.476.476,0,0,1-.5.419h-7.167c-1.385,0-1.836.37-2.142,1.819a19.889,19.889,0,0,0-.58,3.077c0,.74.4.934,1.466.934h7.166c.29,0,.4.145.339.419l-.4,1.884a.466.466,0,0,1-.5.419h-7.28c-2.673,0-3.833-.773-3.833-2.705a24.1,24.1,0,0,1,.757-4.316c.644-3.092,2.158-4.251,5.46-4.251h7.279C319.285,306.057,319.414,306.2,319.35,306.476Zm11.418,8.551-.4,1.884a.481.481,0,0,1-.516.419h-6.619c-2.673,0-3.849-.757-3.849-2.69a7.487,7.487,0,0,1,.193-1.562l1.4-6.6a.475.475,0,0,1,.5-.419h2.094c.274,0,.386.144.338.419l-1.353,6.312a4.026,4.026,0,0,0-.112.886c0,.74.4.934,1.465.934h6.522C330.7,314.608,330.816,314.753,330.768,315.027Zm6.1-8.551-2.222,10.435a.475.475,0,0,1-.5.419h-2.094c-.274,0-.386-.145-.322-.419l2.207-10.435a.49.49,0,0,1,.515-.419h2.094C336.823,306.057,336.92,306.2,336.871,306.476Zm15.815,0L350.8,315.4c-.321,1.53-.966,1.932-2.077,1.932H347.1c-1.353,0-1.53-.257-1.932-1.111l-3.446-7.263a.187.187,0,0,0-.177-.113h-.129c-.1,0-.129.048-.161.161l-1.675,7.907a.481.481,0,0,1-.516.419h-2.013c-.274,0-.386-.145-.322-.419l1.9-8.922c.322-1.53.935-1.932,2.045-1.932h1.675c1.353,0,1.514.257,1.917,1.111l3.446,7.263a.144.144,0,0,0,.161.112H348c.08,0,.129-.048.161-.161l1.675-7.907a.481.481,0,0,1,.516-.419h2.013C352.638,306.057,352.751,306.2,352.686,306.476Zm15.09,0-.4,1.884a.466.466,0,0,1-.5.419h-8.068c-1.4,0-1.836.37-2.142,1.819a20.792,20.792,0,0,0-.58,3.125c0,.725.4.934,1.466.934h5.138c.45,0,.692-.193.805-.725l.193-.95c.033-.161-.016-.225-.161-.225h-4.3c-.274,0-.387-.145-.339-.419l.307-1.449a.48.48,0,0,1,.515-.419h6.716q.483,0,.386.484l-.821,3.913c-.387,1.8-1.24,2.464-2.545,2.464h-6.571c-2.673,0-3.833-.773-3.833-2.705a24.076,24.076,0,0,1,.757-4.316c.66-3.092,2.174-4.251,5.459-4.251h8.2C367.728,306.057,367.841,306.2,367.776,306.476Zm19.229,2.3h-4.831l-1.74,8.132a.466.466,0,0,1-.5.419h-2.077c-.29,0-.4-.145-.339-.419l1.724-8.132H374.4c-.274,0-.386-.145-.322-.419l.4-1.884a.456.456,0,0,1,.5-.419h12.609c.274,0,.387.144.339.419l-.4,1.884A.481.481,0,0,1,387.005,308.779Zm12.868,2.126-.322,1.481a.454.454,0,0,1-.5.419h-8.728a5.08,5.08,0,0,0-.113.95c0,.741.4.934,1.466.934h7.07c.274,0,.4.13.339.419l-.387,1.8a.481.481,0,0,1-.516.419h-7.1c-2.673,0-3.833-.773-3.833-2.705a24.009,24.009,0,0,1,.757-4.316c.644-3.092,2.158-4.251,5.46-4.251h7.1c.289,0,.4.144.338.419l-.386,1.8a.477.477,0,0,1-.5.435h-7.07c-1.369,0-1.82.371-2.126,1.772h8.713C399.824,310.486,399.937,310.614,399.873,310.9Zm12.046-3.431c-.371-1.143-.869-1.417-1.835-1.417h-1.127c-.757,0-1.4.289-2.239,1.417l-6.973,9.422c-.177.257-.161.435.145.435H402.4a.542.542,0,0,0,.484-.225l1.353-1.885h7.006l.579,1.885c.049.161.129.225.371.225h2.432c.322,0,.4-.177.338-.435Zm-6.071,5.54,2.995-4.139a.211.211,0,0,1,.193-.112h.1a.129.129,0,0,1,.145.112l1.272,4.139Zm29.713-5.958a4.589,4.589,0,0,1-.129.934l-1.9,8.922a.466.466,0,0,1-.5.419h-1.965c-.274,0-.4-.145-.338-.419L432.42,309c.016-.113,0-.161-.1-.161h-.13a.243.243,0,0,0-.225.113l-3.929,6.538c-.821,1.369-1.53,1.836-2.77,1.836h-.918c-1.24,0-1.739-.451-1.981-1.836l-1.176-6.538c0-.081-.065-.113-.177-.113h-.129c-.081,0-.113.048-.145.161l-1.691,7.907a.475.475,0,0,1-.5.419H416.59c-.275,0-.387-.145-.322-.419l1.9-8.922c.306-1.433.725-1.932,2.029-1.932h2.094c1.1,0,1.433.209,1.643,1.433l1.176,7.118a.164.164,0,0,0,.177.161h.209a.27.27,0,0,0,.242-.161l4.187-7.118c.709-1.208,1.16-1.433,2.271-1.433h2.029C435.19,306.057,435.561,306.331,435.561,307.055Z" transform="translate(-36.643 -19.562)" fill="#00205b"/>
  </g>
</svg>
